HIERARCHY
ROOT SpineBase
{
  OFFSET 0.000000 0.000000 0.000000
  CHANNELS 6 Xposition Yposition Zposition Zrotation Xrotation Yrotation
  JOINT SpineMid
  {
    OFFSET -0.000000 27.000186 0.000000
    CHANNELS 3 Zrotation Xrotation Yrotation
    JOINT SpineShoulder
    {
      OFFSET 0.248985 20.106402 -0.308244
      CHANNELS 3 Zrotation Xrotation Yrotation
      JOINT Neck
      {
        OFFSET 0.137703 6.655700 -0.360715
        CHANNELS 3 Zrotation Xrotation Yrotation
        JOINT Head
        {
          OFFSET 4.317766 13.295665 -0.016445
          CHANNELS 3 Zrotation Xrotation Yrotation
          End Site
          {
            OFFSET 0 0 0
          }
        }
      }
      JOINT ShoulderLeft
      {
        OFFSET -10.341845 -2.641764 -12.109729
        CHANNELS 3 Zrotation Xrotation Yrotation
        JOINT ElbowLeft
        {
          OFFSET 5.001386 -18.295204 -7.760002
          CHANNELS 3 Zrotation Xrotation Yrotation
          JOINT WristLeft
          {
            OFFSET 16.222724 -9.975014 -6.830440
            CHANNELS 3 Zrotation Xrotation Yrotation
            JOINT HandLeft
            {
              OFFSET 6.690174 -2.384455 -3.463233
              CHANNELS 3 Zrotation Xrotation Yrotation
              JOINT HandTipLeft
              {
                OFFSET 3.949726 -1.858740 -2.751267
                CHANNELS 3 Zrotation Xrotation Yrotation
                End Site
                {
                  OFFSET 0 0 0
                }
              }
              JOINT ThumbLeft
              {
                OFFSET 1.220324 -1.710570 -3.203505
                CHANNELS 3 Zrotation Xrotation Yrotation
                End Site
                {
                  OFFSET 0 0 0
                }
              }
            }
          }
        }
      }
      JOINT ShoulderRight
      {
        OFFSET 14.140581 -5.543547 8.733161
        CHANNELS 3 Zrotation Xrotation Yrotation
        JOINT ElbowRight
        {
          OFFSET 5.794060 -20.879489 -6.029864
          CHANNELS 3 Zrotation Xrotation Yrotation
          JOINT WristRight
          {
            OFFSET 5.299829 -13.867255 -14.554919
            CHANNELS 3 Zrotation Xrotation Yrotation
            JOINT HandRight
            {
              OFFSET -0.658751 0.859265 -9.628387
              CHANNELS 3 Zrotation Xrotation Yrotation
              JOINT HandTipRight
              {
                OFFSET -0.851229 -1.048469 -3.057871
                CHANNELS 3 Zrotation Xrotation Yrotation
                End Site
                {
                  OFFSET 0 0 0
                }
              }
              JOINT ThumbRight
              {
                OFFSET -1.432691 3.878529 -3.633030
                CHANNELS 3 Zrotation Xrotation Yrotation
                End Site
                {
                  OFFSET 0 0 0
                }
              }
            }
          }
        }
      }
    }
  }
  JOINT HipLeft
  {
    OFFSET -4.978273 1.709176 -7.066813
    CHANNELS 3 Zrotation Xrotation Yrotation
    JOINT KneeLeft
    {
      OFFSET -6.183039 -31.350907 -1.688978
      CHANNELS 3 Zrotation Xrotation Yrotation
      JOINT AnkleLeft
      {
        OFFSET -3.957686 -34.979746 6.118439
        CHANNELS 3 Zrotation Xrotation Yrotation
        JOINT FootLeft
        {
          OFFSET 0.583598 -8.501080 -4.107141
          CHANNELS 3 Zrotation Xrotation Yrotation
          End Site
          {
            OFFSET 0 0 0
          }
        }
      }
    }
  }
  JOINT HipRight
  {
    OFFSET 5.543357 0.060089 0.512689
    CHANNELS 3 Zrotation Xrotation Yrotation
    JOINT KneeRight
    {
      OFFSET -3.846200 -31.721942 3.131831
      CHANNELS 3 Zrotation Xrotation Yrotation
      JOINT AnkleRight
      {
        OFFSET -8.517524 -31.699520 1.108278
        CHANNELS 3 Zrotation Xrotation Yrotation
        JOINT FootRight
        {
          OFFSET 1.305922 -7.677807 -5.639109
          CHANNELS 3 Zrotation Xrotation Yrotation
          End Site
          {
            OFFSET 0 0 0
          }
        }
      }
    }
  }
}
MOTION
Frames: 14
Frame Time: 0.033333
-58.726557 44.804609 354.582716 -51.762871 -31.320777 -51.963697 2.957221 -0.957538 34.562863 2.622539 -0.270370 -2.346655 39.922645 37.557860 -10.550902 0.000000 0.000000 0.000000 25.884647 75.550743 19.498456 -62.129787 -28.512339 -94.600425 -0.909655 8.656546 -17.248267 6.483658 -21.253144 29.957347 0.000000 0.000000 0.000000 0.000000 0.000000 0.000000 7.145697 -20.569787 -21.374819 -13.275315 45.841883 58.971994 28.436343 -34.319514 7.123163 -7.624497 0.669113 12.396511 0.000000 0.000000 0.000000 0.000000 0.000000 0.000000 160.463972 42.322364 -116.124928 -86.631522 -54.666962 -32.452665 -47.812379 17.300923 40.706833 0.000000 0.000000 0.000000 165.907595 29.802418 -101.273845 -94.360261 -22.620523 -37.460700 -63.963868 -23.251660 48.610744 0.000000 0.000000 0.000000
-58.301931 43.312449 355.266061 -50.779878 -31.668955 -49.884905 2.005159 -0.333605 33.239804 3.195104 -0.330806 -2.486679 35.820833 37.176639 -8.249109 0.000000 0.000000 0.000000 34.695813 70.651105 8.372993 -59.126898 -30.682205 -93.077594 -14.304620 -3.731604 -11.101336 12.773657 -11.177678 25.376181 0.000000 0.000000 0.000000 0.000000 0.000000 0.000000 6.123914 -21.569432 -21.274436 -13.262331 45.845657 58.969030 26.575555 -33.950047 1.964426 -5.876123 -2.094713 18.537794 0.000000 0.000000 0.000000 0.000000 0.000000 0.000000 162.132316 43.422220 -119.696387 -85.869506 -57.794119 -34.817222 -21.725087 34.752837 23.372907 0.000000 0.000000 0.000000 162.758741 28.942963 -96.683823 -94.883660 -20.662981 -36.104462 -59.297009 -17.575794 47.942717 0.000000 0.000000 0.000000
-57.675540 41.619786 356.448091 -49.683785 -31.947327 -48.854503 1.386044 0.318406 32.877405 3.473741 -0.166214 -2.444307 29.780512 35.760705 -4.631301 0.000000 0.000000 0.000000 37.835523 68.022246 3.857371 -55.398417 -34.954864 -94.734528 -26.470456 -24.128342 1.355301 18.276164 2.158974 6.353511 0.000000 0.000000 0.000000 0.000000 0.000000 0.000000 5.084724 -22.675319 -21.219768 -13.709300 41.399160 62.003674 27.045494 -30.257772 -8.155809 -3.901902 -6.396660 27.189246 0.000000 0.000000 0.000000 0.000000 0.000000 0.000000 163.206261 41.994827 -122.202854 -88.699879 -59.509282 -37.915612 -6.895613 36.955745 11.349834 0.000000 0.000000 0.000000 162.207139 27.946586 -96.122121 -96.367527 -20.344469 -36.792351 -41.471987 -2.310675 39.634174 0.000000 0.000000 0.000000
-57.054107 40.413395 357.413838 -48.487535 -32.332365 -48.007984 1.027134 0.836854 32.531411 3.680430 0.489496 -2.218860 22.222255 33.404854 -0.283732 0.000000 0.000000 0.000000 41.049085 65.523698 -0.665206 -52.598555 -39.962938 -100.715897 -26.718680 -51.071222 27.707701 25.381173 12.262259 -19.591301 0.000000 0.000000 0.000000 0.000000 0.000000 0.000000 3.884823 -23.912594 -21.175283 -12.830805 42.623144 59.715604 24.351259 -31.879677 -10.528251 -2.257011 -3.507260 30.002817 0.000000 0.000000 0.000000 0.000000 0.000000 0.000000 163.219930 41.168745 -123.490049 -89.721343 -60.408148 -39.047324 9.056235 35.691330 -1.631966 0.000000 0.000000 0.000000 160.302879 27.882624 -94.233457 -96.591832 -19.231236 -36.003024 -26.955181 6.611091 30.649753 0.000000 0.000000 0.000000
-56.428223 39.459610 357.935536 -47.155750 -32.089019 -45.815064 0.819591 1.318759 31.109521 3.417500 1.044007 -1.898022 15.617314 30.349552 3.311833 0.000000 0.000000 0.000000 46.715481 64.537546 -6.272423 -54.229945 -44.839097 -108.629305 -12.968063 -56.252294 53.198724 30.427450 16.909852 -39.924512 0.000000 0.000000 0.000000 0.000000 0.000000 0.000000 -0.976127 -25.955450 -19.995491 -5.708277 54.827029 50.600856 15.536007 -38.902629 -12.011375 1.767083 -1.891470 25.383515 0.000000 0.000000 0.000000 0.000000 0.000000 0.000000 162.032050 41.990208 -122.581151 -87.563677 -61.192116 -37.878205 22.816748 31.584184 -12.469496 0.000000 0.000000 0.000000 156.818036 26.769213 -88.164205 -97.426559 -16.236586 -33.785386 -19.725031 10.506493 25.904925 0.000000 0.000000 0.000000
-55.778976 38.954090 358.009477 -45.728198 -31.372900 -45.623297 0.642835 1.794535 31.871212 2.974513 1.539382 -1.556326 9.934722 27.184012 5.980966 0.000000 0.000000 0.000000 48.441627 65.106485 -7.360813 -55.917336 -50.679386 -116.968779 0.324376 -57.351998 78.595420 57.283500 17.216207 -66.452659 0.000000 0.000000 0.000000 0.000000 0.000000 0.000000 -0.831933 -28.555942 -21.661417 -3.820189 63.998595 43.304605 9.486531 -46.175383 -8.526945 2.814131 4.060335 15.635535 0.000000 0.000000 0.000000 0.000000 0.000000 0.000000 160.916837 44.094500 -121.524695 -86.003458 -60.517235 -36.285115 26.645119 31.145990 -15.211332 0.000000 0.000000 0.000000 154.801229 26.496521 -84.270060 -98.546470 -13.385920 -31.711165 -19.262114 11.913452 25.875153 0.000000 0.000000 0.000000
-55.611926 39.274842 357.248771 -44.482309 -30.206626 -47.481647 0.402921 2.156619 34.758722 2.304691 1.898818 -1.223888 6.217839 24.141781 7.426267 0.000000 0.000000 0.000000 51.985401 65.147344 -9.730829 -58.274755 -54.812556 -119.929018 -1.783393 -55.521283 79.909353 103.322175 20.657090 -53.195393 0.000000 0.000000 0.000000 0.000000 0.000000 0.000000 4.032469 -30.511449 -23.934523 -8.952052 68.076732 40.984528 5.504457 -54.955995 -5.351568 3.218897 13.911883 5.535490 0.000000 0.000000 0.000000 0.000000 0.000000 0.000000 160.626115 47.369004 -120.974805 -84.141110 -58.879676 -33.817703 32.384396 30.244314 -19.180428 0.000000 0.000000 0.000000 153.869055 27.286926 -81.884424 -99.571963 -10.431001 -29.326036 -25.352936 10.821368 30.495125 0.000000 0.000000 0.000000
-55.473158 39.504102 357.119015 -43.232201 -29.076849 -47.685717 0.456248 2.232653 35.794892 2.111864 1.726444 -1.189543 3.529361 22.584482 8.197647 0.000000 0.000000 0.000000 56.534717 65.999539 -13.752420 -60.691518 -56.419856 -117.269092 -11.332543 -45.230625 69.323430 114.197668 45.389838 -24.265940 0.000000 0.000000 0.000000 0.000000 0.000000 0.000000 13.175455 -29.774018 -24.935070 -20.355997 65.005397 43.621620 5.852799 -59.769623 -0.081304 3.487050 18.758320 -4.381366 0.000000 0.000000 0.000000 0.000000 0.000000 0.000000 160.278851 49.757186 -120.376838 -83.422840 -58.504699 -33.103421 44.901481 23.440697 -27.576446 0.000000 0.000000 0.000000 153.431459 26.991568 -79.434779 -101.349763 -8.432067 -28.081960 -38.418960 5.341557 39.728546 0.000000 0.000000 0.000000
-55.557999 40.517827 356.823040 -42.955577 -27.755253 -47.153374 1.351303 1.851950 35.460058 1.647983 1.428656 -1.155358 3.623185 22.578735 8.099494 0.000000 0.000000 0.000000 58.921093 65.035395 -16.000612 -59.290333 -54.811445 -108.727656 -18.108475 -40.088616 53.112841 72.683576 44.708715 4.736432 0.000000 0.000000 0.000000 0.000000 0.000000 0.000000 26.415872 -25.475655 -25.220794 -30.095451 55.227037 43.948885 7.929606 -61.359113 4.700001 3.296755 21.316477 -6.793249 0.000000 0.000000 0.000000 0.000000 0.000000 0.000000 159.857759 52.541569 -118.984586 -80.539104 -58.446776 -31.404461 59.903867 7.869981 -35.349626 0.000000 0.000000 0.000000 151.955869 26.716301 -74.734868 -101.729216 -6.031714 -25.658875 -55.972455 -8.071136 49.868206 0.000000 0.000000 0.000000
-55.683968 40.758215 357.042304 -42.209178 -26.800766 -47.241714 1.344056 1.175930 36.073264 0.923041 1.256980 -1.043432 7.052041 23.053640 6.720288 0.000000 0.000000 0.000000 61.091967 64.895085 -17.224422 -61.022260 -49.262421 -96.834207 -22.960574 -29.076114 27.858349 39.055128 28.630398 21.444695 0.000000 0.000000 0.000000 0.000000 0.000000 0.000000 40.909711 -18.844776 -25.683830 -36.158602 41.202705 40.805434 13.946524 -59.580606 14.212286 2.077560 24.938276 -11.919351 0.000000 0.000000 0.000000 0.000000 0.000000 0.000000 161.342906 55.799015 -120.916151 -77.337816 -59.159601 -30.186480 72.537484 -12.404885 -37.485930 0.000000 0.000000 0.000000 151.366602 26.661911 -72.289888 -102.624835 -4.384218 -24.259300 -59.641980 -12.339846 51.136414 0.000000 0.000000 0.000000
-55.831938 40.983059 358.058006 -41.625133 -27.382378 -43.093352 1.146040 1.163984 31.986900 1.476132 0.469708 -1.386216 7.010745 26.058647 6.505022 0.000000 0.000000 0.000000 62.233630 66.524737 -19.309603 -61.600284 -45.935764 -86.584851 -26.230810 -21.817437 5.430151 27.595020 32.372649 64.554544 0.000000 0.000000 0.000000 0.000000 0.000000 0.000000 50.883794 -9.928365 -27.090406 -40.565265 26.065803 37.970271 15.362043 -56.696560 13.732074 1.818159 24.916671 -15.957367 0.000000 0.000000 0.000000 0.000000 0.000000 0.000000 160.530095 54.267328 -121.595260 -78.325236 -62.220829 -33.208812 79.080322 -27.109691 -34.173933 0.000000 0.000000 0.000000 148.691925 23.571024 -67.055800 -103.527331 -3.239741 -23.278964 -69.184800 -23.766151 53.208596 0.000000 0.000000 0.000000
-55.972938 41.187527 358.853084 -41.421242 -27.569511 -43.662584 1.140343 1.022887 32.518606 1.496204 0.702260 -1.317473 8.382440 25.830300 5.880043 0.000000 0.000000 0.000000 58.226108 65.221371 -16.134382 -58.614150 -43.958658 -79.023227 -29.857909 -22.816071 -0.411306 31.926571 36.441162 63.372762 0.000000 0.000000 0.000000 0.000000 0.000000 0.000000 57.738797 -3.141169 -28.141924 -44.561183 12.219056 37.392345 17.250474 -49.962403 11.362928 0.654022 22.742444 -16.579772 0.000000 0.000000 0.000000 0.000000 0.000000 0.000000 162.511875 55.086132 -124.610781 -77.166128 -62.991896 -33.081335 79.650735 -29.647802 -32.850145 0.000000 0.000000 0.000000 149.428627 23.884394 -68.763545 -103.849239 -3.858361 -24.070218 -70.146725 -25.221862 53.073510 0.000000 0.000000 0.000000
-55.979414 41.554844 359.322982 -41.863611 -27.402145 -42.244082 1.653031 0.613139 30.786369 1.493070 0.990985 -1.240301 10.286856 25.146294 5.189144 0.000000 0.000000 0.000000 51.327328 64.225885 -10.047478 -53.924611 -43.701408 -77.942839 -36.598104 -27.079130 -6.130370 36.256967 36.526175 61.468455 0.000000 0.000000 0.000000 0.000000 0.000000 0.000000 60.936951 1.771688 -28.598254 -48.127347 0.190249 39.354500 21.069888 -41.591923 7.817462 -1.773422 17.884769 -11.505858 0.000000 0.000000 0.000000 0.000000 0.000000 0.000000 163.260048 53.811147 -125.306163 -79.175008 -64.522099 -35.687074 94.571802 -52.945555 -17.513943 0.000000 0.000000 0.000000 148.353552 22.531967 -65.607550 -103.799390 -2.721664 -22.849729 -65.690789 -19.240795 52.877435 0.000000 0.000000 0.000000
-56.053201 41.911720 359.466235 -42.132723 -27.210782 -41.217290 2.155686 0.350658 29.526261 1.582614 1.112732 -1.224712 10.921904 24.427381 4.988196 0.000000 0.000000 0.000000 41.524101 62.237161 -1.814190 -47.239850 -45.104057 -83.592545 -46.429424 -37.966594 -9.242552 46.755229 41.558885 46.303551 0.000000 0.000000 0.000000 0.000000 0.000000 0.000000 59.821115 4.678345 -27.701492 -45.404333 -0.494107 36.485166 24.216261 -36.062089 15.762586 -3.793750 11.718204 -18.619270 0.000000 0.000000 0.000000 0.000000 0.000000 0.000000 162.900504 53.858669 -124.645511 -78.707919 -65.069665 -35.844762 122.202513 -68.023863 16.390167 0.000000 0.000000 0.000000 146.531744 21.683082 -61.903689 -103.213521 -1.124510 -20.881783 -66.826617 -26.577934 48.857433 0.000000 0.000000 0.000000
